<mxfile host="app.diagrams.net" modified="2024-04-19T03:46:55.722Z" agent="Mozilla/5.0 (Windows NT 10.0; Win64; x64) AppleWebKit/537.36 (KHTML, like Gecko) Chrome/123.0.0.0 Safari/537.36" version="24.2.5" etag="qRm-1AUrAg_jf40KX7Ju" type="github">
  <diagram name="Page-1" id="7UWvWOu80o84K-1L1wOX">
    <mxGraphModel>
      <root>
        <mxCell id="0" />
        <mxCell id="1" parent="0" />
      </root>
    </mxGraphModel>
  </diagram>
</mxfile>
